<mxfile host="Electron" agent="Mozilla/5.0 (Windows NT 10.0; Win64; x64) AppleWebKit/537.36 (KHTML, like Gecko) draw.io/28.0.6 Chrome/138.0.7204.100 Electron/37.2.3 Safari/537.36" version="28.0.6">
  <diagram name="Page-1" id="u-riY6wFkD0XKsibm82M">
    <mxGraphModel dx="827" dy="979" grid="1" gridSize="10" guides="1" tooltips="1" connect="1" arrows="1" fold="1" page="1" pageScale="1" pageWidth="827" pageHeight="1169" math="0" shadow="0">
      <root>
        <mxCell id="0" />
        <mxCell id="1" parent="0" />
        <mxCell id="HeZKjyHG_rGJUpekzMKk-1" value="SIGN IN" style="rounded=0;whiteSpace=wrap;html=1;" vertex="1" parent="1">
          <mxGeometry x="40" y="300" width="120" height="60" as="geometry" />
        </mxCell>
        <mxCell id="HeZKjyHG_rGJUpekzMKk-2" value="ACCUEIL" style="rounded=0;whiteSpace=wrap;html=1;" vertex="1" parent="1">
          <mxGeometry x="210" y="300" width="120" height="60" as="geometry" />
        </mxCell>
        <mxCell id="HeZKjyHG_rGJUpekzMKk-3" value="JEU" style="rounded=0;whiteSpace=wrap;html=1;" vertex="1" parent="1">
          <mxGeometry x="360" y="300" width="120" height="60" as="geometry" />
        </mxCell>
        <mxCell id="HeZKjyHG_rGJUpekzMKk-5" value="REJOUER ?" style="rounded=0;whiteSpace=wrap;html=1;" vertex="1" parent="1">
          <mxGeometry x="520" y="300" width="120" height="60" as="geometry" />
        </mxCell>
        <mxCell id="HeZKjyHG_rGJUpekzMKk-6" value="HISTORIQUE" style="rounded=0;whiteSpace=wrap;html=1;" vertex="1" parent="1">
          <mxGeometry x="210" y="190" width="120" height="60" as="geometry" />
        </mxCell>
        <mxCell id="HeZKjyHG_rGJUpekzMKk-8" value="" style="endArrow=classic;html=1;rounded=0;exitX=1;exitY=0.5;exitDx=0;exitDy=0;" edge="1" parent="1" source="HeZKjyHG_rGJUpekzMKk-2">
          <mxGeometry width="50" height="50" relative="1" as="geometry">
            <mxPoint x="280" y="440" as="sourcePoint" />
            <mxPoint x="360" y="330" as="targetPoint" />
          </mxGeometry>
        </mxCell>
        <mxCell id="HeZKjyHG_rGJUpekzMKk-10" value="" style="endArrow=classic;html=1;rounded=0;exitX=1.012;exitY=0.655;exitDx=0;exitDy=0;entryX=0.5;entryY=1;entryDx=0;entryDy=0;exitPerimeter=0;" edge="1" parent="1" source="HeZKjyHG_rGJUpekzMKk-5" target="HeZKjyHG_rGJUpekzMKk-3">
          <mxGeometry width="50" height="50" relative="1" as="geometry">
            <mxPoint x="360" y="340" as="sourcePoint" />
            <mxPoint x="394" y="340" as="targetPoint" />
            <Array as="points">
              <mxPoint x="690" y="340" />
              <mxPoint x="690" y="380" />
              <mxPoint x="420" y="380" />
            </Array>
          </mxGeometry>
        </mxCell>
        <mxCell id="HeZKjyHG_rGJUpekzMKk-11" value="" style="endArrow=classic;html=1;rounded=0;exitX=1.006;exitY=0.333;exitDx=0;exitDy=0;entryX=0.5;entryY=1;entryDx=0;entryDy=0;exitPerimeter=0;" edge="1" parent="1" source="HeZKjyHG_rGJUpekzMKk-5" target="HeZKjyHG_rGJUpekzMKk-2">
          <mxGeometry width="50" height="50" relative="1" as="geometry">
            <mxPoint x="509" y="400" as="sourcePoint" />
            <mxPoint x="289" y="430" as="targetPoint" />
            <Array as="points">
              <mxPoint x="790" y="320" />
              <mxPoint x="790" y="430" />
              <mxPoint x="270" y="430" />
            </Array>
          </mxGeometry>
        </mxCell>
        <mxCell id="HeZKjyHG_rGJUpekzMKk-12" value="NON" style="text;html=1;align=center;verticalAlign=middle;resizable=0;points=[];autosize=1;strokeColor=none;fillColor=none;" vertex="1" parent="1">
          <mxGeometry x="670" y="300" width="50" height="30" as="geometry" />
        </mxCell>
        <mxCell id="HeZKjyHG_rGJUpekzMKk-13" value="OUI" style="text;html=1;align=center;verticalAlign=middle;resizable=0;points=[];autosize=1;strokeColor=none;fillColor=none;" vertex="1" parent="1">
          <mxGeometry x="650" y="338" width="40" height="30" as="geometry" />
        </mxCell>
        <mxCell id="HeZKjyHG_rGJUpekzMKk-14" value="" style="endArrow=classic;html=1;rounded=0;exitX=0.5;exitY=0;exitDx=0;exitDy=0;entryX=0.5;entryY=1;entryDx=0;entryDy=0;" edge="1" parent="1" source="HeZKjyHG_rGJUpekzMKk-2" target="HeZKjyHG_rGJUpekzMKk-6">
          <mxGeometry width="50" height="50" relative="1" as="geometry">
            <mxPoint x="340" y="330" as="sourcePoint" />
            <mxPoint x="374" y="330" as="targetPoint" />
          </mxGeometry>
        </mxCell>
        <mxCell id="HeZKjyHG_rGJUpekzMKk-15" value="" style="endArrow=classic;html=1;rounded=0;exitX=1;exitY=0.5;exitDx=0;exitDy=0;entryX=0;entryY=0.5;entryDx=0;entryDy=0;" edge="1" parent="1" source="HeZKjyHG_rGJUpekzMKk-1" target="HeZKjyHG_rGJUpekzMKk-2">
          <mxGeometry width="50" height="50" relative="1" as="geometry">
            <mxPoint x="330" y="320" as="sourcePoint" />
            <mxPoint x="364" y="320" as="targetPoint" />
          </mxGeometry>
        </mxCell>
        <mxCell id="HeZKjyHG_rGJUpekzMKk-16" value="" style="endArrow=classic;html=1;rounded=0;exitX=1;exitY=0.5;exitDx=0;exitDy=0;entryX=0;entryY=0.5;entryDx=0;entryDy=0;" edge="1" parent="1" source="HeZKjyHG_rGJUpekzMKk-3" target="HeZKjyHG_rGJUpekzMKk-5">
          <mxGeometry width="50" height="50" relative="1" as="geometry">
            <mxPoint x="380" y="310" as="sourcePoint" />
            <mxPoint x="414" y="310" as="targetPoint" />
          </mxGeometry>
        </mxCell>
      </root>
    </mxGraphModel>
  </diagram>
</mxfile>
